<?xml version="1.0" standalone="no"?>
<!DOCTYPE svg PUBLIC "-//W3C//DTD SVG 20010904//EN"
 "http://www.w3.org/TR/2001/REC-SVG-20010904/DTD/svg10.dtd">
<svg version="1.0" xmlns="http://www.w3.org/2000/svg"
 width="1280.000000pt" height="640.000000pt" viewBox="0 0 1280.000000 640.000000"
 preserveAspectRatio="xMidYMid meet">
<metadata>
Created by potrace 1.15, written by Peter Selinger 2001-2017
</metadata>
<g transform="translate(0.000000,640.000000) scale(0.100000,-0.100000)"
fill="#f44336" stroke="none">
<path d="M5356 5998 c-362 -21 -694 -109 -1031 -272 -366 -178 -650 -383
-1036 -749 -216 -205 -350 -322 -502 -440 -479 -372 -909 -576 -1297 -617
-434 -46 -863 -247 -1136 -532 -169 -176 -272 -371 -326 -621 -20 -89 -22
-130 -22 -327 0 -187 4 -247 23 -355 62 -353 200 -589 406 -691 l79 -39 179
-3 c163 -3 179 -2 173 13 -3 9 -11 70 -17 136 -41 426 125 874 441 1189 450
449 1132 566 1710 294 158 -75 281 -164 420 -303 218 -218 345 -451 411 -752
20 -87 24 -133 24 -289 0 -102 -4 -209 -8 -237 l-8 -53 1901 0 1901 0 -8 78
c-14 135 -9 349 11 457 101 552 506 1013 1034 1174 180 55 251 66 452 66 210
0 320 -18 504 -82 359 -124 676 -405 845 -748 114 -230 154 -397 155 -645 1
-91 -3 -195 -7 -233 l-8 -67 654 0 c718 0 745 2 911 60 48 17 108 43 134 57
231 127 400 348 467 611 14 52 15 160 13 794 -3 721 -4 734 -25 789 -58 153
-171 253 -368 326 -48 17 -137 18 -2065 23 -1552 4 -2020 8 -2036 17 -39 23
-83 82 -99 135 -13 44 -15 136 -15 612 0 346 -4 595 -11 651 -33 272 -131 474
-265 547 l-49 26 -1195 4 c-657 1 -1248 0 -1314 -4z m492 -1390 l2 -728 -959
0 c-594 0 -978 4 -1011 10 -130 25 -246 111 -270 201 -16 58 -6 167 21 223 37
81 300 370 454 501 97 83 274 205 400 277 186 106 449 222 535 237 30 5 228 8
440 7 l385 -1 3 -727z m1127 708 c51 -23 91 -61 118 -111 22 -40 22 -45 22
-621 l0 -581 -29 -37 c-16 -21 -50 -48 -75 -60 -45 -20 -61 -21 -528 -24
l-483 -3 0 724 c0 398 3 727 7 731 4 4 215 6 468 4 420 -3 463 -5 500 -22z"/>
<path d="M2180 2833 c-272 -42 -513 -166 -701 -360 -97 -100 -154 -178 -212
-291 -185 -357 -183 -770 3 -1131 61 -118 116 -191 222 -300 177 -178 416
-301 672 -343 103 -17 305 -14 408 6 501 97 874 465 984 971 24 110 24 360 0
470 -110 506 -494 883 -990 970 -81 14 -317 19 -386 8z m362 -667 c221 -77
372 -276 386 -508 10 -174 -49 -330 -167 -447 -117 -115 -238 -165 -401 -166
-175 0 -295 49 -417 171 -115 116 -166 240 -165 409 0 268 188 500 452 560 90
20 221 12 312 -19z"/>
<path d="M8915 2825 c-517 -94 -915 -505 -996 -1027 -19 -123 -7 -361 24 -478
101 -384 370 -692 732 -837 331 -133 691 -116 1015 47 270 136 489 386 594
678 91 255 91 568 0 824 -147 410 -511 718 -938 793 -107 18 -331 19 -431 0z
m376 -649 c147 -45 295 -169 358 -300 130 -271 42 -583 -211 -747 -163 -105
-384 -116 -566 -27 -97 47 -210 161 -257 259 -61 130 -77 246 -50 374 46 221
224 400 445 450 75 17 210 13 281 -9z"/>
</g>
</svg>
