<?xml version="1.0" standalone="no"?>
<!DOCTYPE svg PUBLIC "-//W3C//DTD SVG 20010904//EN"
 "http://www.w3.org/TR/2001/REC-SVG-20010904/DTD/svg10.dtd">
<svg version="1.0" xmlns="http://www.w3.org/2000/svg"
 width="1280.000000pt" height="795.000000pt" viewBox="0 0 1280.000000 795.000000"
 preserveAspectRatio="xMidYMid meet">
<metadata>
Created by potrace 1.15, written by Peter Selinger 2001-2017
</metadata>
<g transform="translate(0.000000,795.000000) scale(0.100000,-0.100000)"
fill="#f44336" stroke="none">
<path d="M2753 7712 c-260 -130 -473 -239 -473 -242 0 -3 203 -140 450 -304
390 -259 464 -305 557 -342 639 -255 1813 -389 3108 -354 960 25 1975 117
3032 273 l83 12 594 355 c327 195 595 357 595 360 1 3 -199 112 -444 243
l-445 237 -3293 -1 -3292 0 -472 -237z"/>
<path d="M952 6872 l-653 -416 48 -17 c26 -10 399 -144 828 -299 429 -155 890
-321 1025 -370 135 -49 248 -86 252 -82 15 16 298 766 291 773 -24 22 -1125
829 -1131 828 -4 0 -301 -188 -660 -417z"/>
<path d="M10678 6877 c-306 -227 -559 -415 -563 -418 -5 -6 280 -758 293 -771
6 -6 318 105 1765 628 207 75 377 139 377 143 -1 8 -1288 825 -1304 828 -6 1
-262 -184 -568 -410z"/>
<path d="M3230 6276 c0 0 -27 -161 -60 -356 -32 -195 -57 -356 -55 -358 2 -2
655 -82 1452 -177 796 -96 1467 -177 1491 -180 l42 -6 0 360 c0 199 -3 361 -6
361 -9 0 -2814 349 -2841 354 -13 2 -23 3 -23 2z"/>
<path d="M8210 6099 c-778 -98 -1423 -178 -1432 -179 -17 0 -18 -24 -18 -361
l0 -360 43 6 c23 3 694 84 1490 180 797 95 1450 175 1452 177 4 3 -113 710
-118 713 -1 1 -639 -78 -1417 -176z"/>
<path d="M90 6004 c47 -49 1176 -1230 2509 -2624 2452 -2565 2606 -2725 2579
-2680 -8 14 -610 1031 -1338 2260 -728 1229 -1324 2236 -1325 2238 -2 2 -2446
875 -2485 887 -18 6 -3 -16 60 -81z"/>
<path d="M11531 5645 c-684 -245 -1245 -446 -1246 -447 -1 -2 -597 -1009
-1325 -2238 -728 -1229 -1330 -2246 -1338 -2260 -25 -42 104 92 1144 1180
2666 2789 3884 4062 3953 4133 41 42 71 77 66 77 -6 -1 -570 -201 -1254 -445z"/>
<path d="M3163 5052 c570 -966 2992 -5040 2995 -5037 2 1 -1 374 -7 826 -6
453 -16 1184 -21 1624 -27 2140 -30 2309 -41 2316 -6 3 -41 9 -78 13 -36 4
-702 83 -1480 176 -778 94 -1415 170 -1417 170 -2 0 20 -40 49 -88z"/>
<path d="M8178 4961 c-807 -98 -1470 -180 -1473 -183 -5 -5 -12 -472 -35
-2293 -5 -445 -15 -1183 -21 -1638 -6 -456 -9 -830 -7 -832 2 -2 234 384 515
858 281 474 931 1569 1443 2432 513 864 968 1630 1011 1703 70 118 76 132 56
131 -12 -1 -682 -81 -1489 -178z"/>
</g>
</svg>
